<svg xmlns="http://www.w3.org/2000/svg" viewBox="0 0 3952.23 1423.69"><defs><style>.cls-1{fill:#00a651;}.cls-2{fill:#f1c40f;}.cls-3{fill:#000100;}.cls-4{fill:#7cc6fe;}</style></defs><g id="Layer_2" data-name="Layer 2"><g id="Layer_1-2" data-name="Layer 1"><rect class="cls-1" x="498.84" y="30.8" width="244.03" height="487.23" rx="30"/><rect class="cls-2" y="31.85" width="251.97" height="995.33" rx="30"/><rect x="989.74" y="30.8" width="245.52" height="1364.18" rx="30"/><path class="cls-3" d="M2116.38,15.45,1373.6,1353.37a30,30,0,0,0,26.24,44.58H2885.41a30,30,0,0,0,26.24-44.58L2168.87,15.45A30,30,0,0,0,2116.38,15.45Z"/><path class="cls-4" d="M3205.64,1408.25,3948.42,70.32a30,30,0,0,0-26.24-44.58H2436.61a30,30,0,0,0-26.24,44.58l742.78,1337.93C3164.58,1428.84,3194.2,1428.84,3205.64,1408.25Z"/></g></g></svg>